# xmcd
#
# Track frame offsets: 
#        150
#        17334
#        35625
#        58381
#        79819
#        100184
#        112402
#        132073
#        160507
#        173507
#        189821
#
# Disc length: 2862 seconds
#
# Revision: 0
# Processed by: cddbd v1.5.2PL0 Copyright (c) Steve Scherf et al.
# Submitted via: ExactAudioCopy v1.0b4
#
DISCID=830b2c0b
DTITLE=The Electrophonics - Talkin' About
DYEAR=2012
DGENRE=Blues
TTITLE0=Cannonball Juice
TTITLE1=Take A Ride
TTITLE2=Mr. Francesco
TTITLE3=Talkin' About
TTITLE4=Money Talks
TTITLE5=You Make Me Nervous (Ring The Wrong Bell)
TTITLE6=Si Si Si
TTITLE7=13
TTITLE8=I'm In The Mood
TTITLE9=This Time
TTITLE10=You Make Me Feel
EXTD=
EXTT0=
EXTT1=
EXTT2=
EXTT3=
EXTT4=
EXTT5=
EXTT6=
EXTT7=
EXTT8=
EXTT9=
EXTT10=
PLAYORDER=
